{
    "asset" : {
        "generator" : "Khronos glTF Blender I/O v1.6.16",
        "version" : "2.0"
    },
    "extensionsUsed" : [
        "KHR_lights_punctual"
    ],
    "extensionsRequired" : [
        "KHR_lights_punctual"
    ],
    "extensions" : {
        "KHR_lights_punctual" : {
            "lights" : [
                {
                    "color" : [
                        1,
                        1,
                        1
                    ],
                    "intensity" : 1000,
                    "type" : "point",
                    "name" : "Point"
                }
            ]
        }
    },
    "scene" : 0,
    "scenes" : [
        {
            "name" : "Scene",
            "nodes" : [
                0,
                2,
                3,
                4,
                5,
                6,
                7,
                9,
                10
            ]
        }
    ],
    "nodes" : [
        {
            "mesh" : 0,
            "name" : "canon",
            "scale" : [
                1,
                0.25,
                1
            ],
            "translation" : [
                0,
                0,
                0.10613822937011719
            ]
        },
        {
            "camera" : 0,
            "name" : "Camera_Orientation",
            "rotation" : [
                -0.7071067690849304,
                0,
                0,
                0.7071067690849304
            ]
        },
        {
            "children" : [
                1
            ],
            "name" : "Camera",
            "rotation" : [
                0.36404064297676086,
                0.3638004660606384,
                -0.15712705254554749,
                0.8428730368614197
            ],
            "translation" : [
                15.275880813598633,
                19.820093154907227,
                14.791461944580078
            ]
        },
        {
            "mesh" : 1,
            "name" : "bomb",
            "scale" : [
                0.41520369052886963,
                0.41520369052886963,
                0.41520369052886963
            ],
            "translation" : [
                0,
                0,
                -12.097244262695312
            ]
        },
        {
            "mesh" : 0,
            "name" : "canon.001",
            "scale" : [
                1,
                0.25,
                1
            ],
            "translation" : [
                2.645540475845337,
                0,
                0.10613822937011719
            ]
        },
        {
            "mesh" : 0,
            "name" : "canon.002",
            "scale" : [
                1,
                0.25,
                1
            ],
            "translation" : [
                -3.1942451000213623,
                0,
                0.10613822937011719
            ]
        },
        {
            "mesh" : 0,
            "name" : "canon.003",
            "scale" : [
                1,
                0.25,
                1
            ],
            "translation" : [
                0,
                0,
                -2.7674355506896973
            ]
        },
        {
            "mesh" : 0,
            "name" : "canon.004",
            "scale" : [
                1,
                0.25,
                1
            ],
            "translation" : [
                0,
                0,
                3.0365142822265625
            ]
        },
        {
            "extensions" : {
                "KHR_lights_punctual" : {
                    "light" : 0
                }
            },
            "name" : "Point_Orientation",
            "rotation" : [
                -0.7071067690849304,
                0,
                0,
                0.7071067690849304
            ]
        },
        {
            "children" : [
                8
            ],
            "name" : "Point",
            "translation" : [
                0.11188490688800812,
                3.020028591156006,
                0.23255696892738342
            ]
        },
        {
            "mesh" : 2,
            "name" : "arrow",
            "rotation" : [
                0,
                0,
                -1,
                -4.371138828673793e-08
            ],
            "translation" : [
                0.13215084373950958,
                -0.022510647773742676,
                0
            ]
        }
    ],
    "cameras" : [
        {
            "name" : "Camera",
            "perspective" : {
                "aspectRatio" : 1.7777777777777777,
                "yfov" : 0.17563407206128556,
                "zfar" : 100,
                "znear" : 0.10000000149011612
            },
            "type" : "perspective"
        }
    ],
    "materials" : [
        {
            "doubleSided" : true,
            "name" : "Material",
            "pbrMetallicRoughness" : {
                "baseColorTexture" : {
                    "index" : 0
                },
                "metallicFactor" : 0,
                "roughnessFactor" : 0.4000000059604645
            }
        }
    ],
    "meshes" : [
        {
            "name" : "Cube",
            "primitives" : [
                {
                    "attributes" : {
                        "POSITION" : 0,
                        "NORMAL" : 1,
                        "TEXCOORD_0" : 2
                    },
                    "indices" : 3,
                    "material" : 0
                }
            ]
        },
        {
            "name" : "Icosphere.001",
            "primitives" : [
                {
                    "attributes" : {
                        "POSITION" : 4,
                        "NORMAL" : 5,
                        "TEXCOORD_0" : 6
                    },
                    "indices" : 7,
                    "material" : 0
                }
            ]
        },
        {
            "name" : "Cone",
            "primitives" : [
                {
                    "attributes" : {
                        "POSITION" : 8,
                        "NORMAL" : 9,
                        "TEXCOORD_0" : 10
                    },
                    "indices" : 11,
                    "material" : 0
                }
            ]
        }
    ],
    "textures" : [
        {
            "sampler" : 0,
            "source" : 0
        }
    ],
    "images" : [
        {
            "bufferView" : 4,
            "mimeType" : "image/png",
            "name" : "sweet24-1x"
        }
    ],
    "accessors" : [
        {
            "bufferView" : 0,
            "componentType" : 5126,
            "count" : 402,
            "max" : [
                1.584708333015442,
                5.170367240905762,
                1
            ],
            "min" : [
                -1,
                -3,
                -1
            ],
            "type" : "VEC3"
        },
        {
            "bufferView" : 1,
            "componentType" : 5126,
            "count" : 402,
            "type" : "VEC3"
        },
        {
            "bufferView" : 2,
            "componentType" : 5126,
            "count" : 402,
            "type" : "VEC2"
        },
        {
            "bufferView" : 3,
            "componentType" : 5123,
            "count" : 606,
            "type" : "SCALAR"
        },
        {
            "bufferView" : 5,
            "componentType" : 5126,
            "count" : 60,
            "max" : [
                0.8944249749183655,
                1,
                0.8506399989128113
            ],
            "min" : [
                -0.8944249749183655,
                -1,
                -0.8506399989128113
            ],
            "type" : "VEC3"
        },
        {
            "bufferView" : 6,
            "componentType" : 5126,
            "count" : 60,
            "type" : "VEC3"
        },
        {
            "bufferView" : 7,
            "componentType" : 5126,
            "count" : 60,
            "type" : "VEC2"
        },
        {
            "bufferView" : 8,
            "componentType" : 5123,
            "count" : 60,
            "type" : "SCALAR"
        },
        {
            "bufferView" : 9,
            "componentType" : 5126,
            "count" : 24,
            "max" : [
                0.32486802339553833,
                -1.3981704711914062,
                0.3751251697540283
            ],
            "min" : [
                -0.324867844581604,
                -2.148420810699463,
                -0.3751251697540283
            ],
            "type" : "VEC3"
        },
        {
            "bufferView" : 10,
            "componentType" : 5126,
            "count" : 24,
            "type" : "VEC3"
        },
        {
            "bufferView" : 11,
            "componentType" : 5126,
            "count" : 24,
            "type" : "VEC2"
        },
        {
            "bufferView" : 12,
            "componentType" : 5123,
            "count" : 30,
            "type" : "SCALAR"
        }
    ],
    "bufferViews" : [
        {
            "buffer" : 0,
            "byteLength" : 4824,
            "byteOffset" : 0
        },
        {
            "buffer" : 0,
            "byteLength" : 4824,
            "byteOffset" : 4824
        },
        {
            "buffer" : 0,
            "byteLength" : 3216,
            "byteOffset" : 9648
        },
        {
            "buffer" : 0,
            "byteLength" : 1212,
            "byteOffset" : 12864
        },
        {
            "buffer" : 0,
            "byteLength" : 195,
            "byteOffset" : 14076
        },
        {
            "buffer" : 0,
            "byteLength" : 720,
            "byteOffset" : 14272
        },
        {
            "buffer" : 0,
            "byteLength" : 720,
            "byteOffset" : 14992
        },
        {
            "buffer" : 0,
            "byteLength" : 480,
            "byteOffset" : 15712
        },
        {
            "buffer" : 0,
            "byteLength" : 120,
            "byteOffset" : 16192
        },
        {
            "buffer" : 0,
            "byteLength" : 288,
            "byteOffset" : 16312
        },
        {
            "buffer" : 0,
            "byteLength" : 288,
            "byteOffset" : 16600
        },
        {
            "buffer" : 0,
            "byteLength" : 192,
            "byteOffset" : 16888
        },
        {
            "buffer" : 0,
            "byteLength" : 60,
            "byteOffset" : 17080
        }
    ],
    "samplers" : [
        {
            "magFilter" : 9728,
            "minFilter" : 9984
        }
    ],
    "buffers" : [
        {
            "byteLength" : 17140,
            "uri" : "data:application/octet-stream;base64,"
        }
    ]
}
