{
    "asset" : {
        "generator" : "Khronos glTF Blender I/O v1.6.16",
        "version" : "2.0"
    },
    "extensionsUsed" : [
        "KHR_lights_punctual"
    ],
    "extensionsRequired" : [
        "KHR_lights_punctual"
    ],
    "extensions" : {
        "KHR_lights_punctual" : {
            "lights" : [
                {
                    "color" : [
                        1,
                        1,
                        1
                    ],
                    "intensity" : 1000,
                    "type" : "point",
                    "name" : "Point"
                }
            ]
        }
    },
    "scene" : 0,
    "scenes" : [
        {
            "name" : "Scene",
            "nodes" : [
                0,
                2,
                3,
                4,
                5,
                6,
                7,
                9,
                10,
                11,
                12,
                13,
                14,
                15,
                16,
                17,
                18,
                19,
                20,
                21
            ]
        }
    ],
    "nodes" : [
        {
            "mesh" : 0,
            "name" : "canon.000",
            "rotation" : [
                0,
                0.7071068286895752,
                0,
                0.7071068286895752
            ],
            "scale" : [
                1,
                0.25,
                1
            ],
            "translation" : [
                0,
                0,
                1.8813717365264893
            ]
        },
        {
            "camera" : 0,
            "name" : "Camera_Orientation",
            "rotation" : [
                -0.7071067690849304,
                0,
                0,
                0.7071067690849304
            ]
        },
        {
            "children" : [
                1
            ],
            "name" : "Camera",
            "rotation" : [
                0.36404064297676086,
                0.3638004660606384,
                -0.15712705254554749,
                0.8428730368614197
            ],
            "translation" : [
                15.275880813598633,
                19.820093154907227,
                14.791461944580078
            ]
        },
        {
            "mesh" : 1,
            "name" : "bomb",
            "scale" : [
                0.41520369052886963,
                0.41520369052886963,
                0.41520369052886963
            ],
            "translation" : [
                0,
                0,
                -8.215872764587402
            ]
        },
        {
            "mesh" : 0,
            "name" : "canon.001",
            "scale" : [
                1,
                0.25,
                1
            ],
            "translation" : [
                8,
                0,
                -6.11862850189209
            ]
        },
        {
            "mesh" : 0,
            "name" : "canon.002",
            "scale" : [
                1,
                0.25,
                1
            ],
            "translation" : [
                -7,
                0,
                1.8813717365264893
            ]
        },
        {
            "mesh" : 0,
            "name" : "canon",
            "rotation" : [
                0,
                -0.7071068286895752,
                0,
                0.7071068286895752
            ],
            "scale" : [
                1,
                0.25,
                1
            ],
            "translation" : [
                0,
                0,
                -8.11862850189209
            ]
        },
        {
            "mesh" : 0,
            "name" : "canon.004",
            "scale" : [
                1,
                0.25,
                1
            ],
            "translation" : [
                -7,
                0,
                -6.11862850189209
            ]
        },
        {
            "extensions" : {
                "KHR_lights_punctual" : {
                    "light" : 0
                }
            },
            "name" : "Point_Orientation",
            "rotation" : [
                -0.7071067690849304,
                0,
                0,
                0.7071067690849304
            ]
        },
        {
            "children" : [
                8
            ],
            "name" : "Point",
            "translation" : [
                0.11188490688800812,
                3.020028591156006,
                4.11392879486084
            ]
        },
        {
            "mesh" : 2,
            "name" : "arrow",
            "rotation" : [
                0,
                0,
                -1,
                -4.371138828673793e-08
            ],
            "translation" : [
                0.13215084373950958,
                -0.022510647773742676,
                3.8813717365264893
            ]
        },
        {
            "mesh" : 0,
            "name" : "canon.005",
            "scale" : [
                1,
                0.25,
                1
            ],
            "translation" : [
                8,
                0,
                6.88137149810791
            ]
        },
        {
            "mesh" : 0,
            "name" : "canon.006",
            "scale" : [
                1,
                0.25,
                1
            ],
            "translation" : [
                5,
                0,
                -2.1186282634735107
            ]
        },
        {
            "mesh" : 3,
            "name" : "Cube",
            "translation" : [
                0,
                1,
                3.8813717365264893
            ]
        },
        {
            "mesh" : 3,
            "name" : "Cube.001",
            "translation" : [
                -2,
                1,
                3.8813717365264893
            ]
        },
        {
            "mesh" : 3,
            "name" : "Cube.002",
            "translation" : [
                -4,
                1,
                3.8813717365264893
            ]
        },
        {
            "mesh" : 3,
            "name" : "Cube.003",
            "translation" : [
                3,
                1,
                -2.1186282634735107
            ]
        },
        {
            "mesh" : 3,
            "name" : "Cube.004",
            "translation" : [
                8,
                1,
                8.88137149810791
            ]
        },
        {
            "mesh" : 3,
            "name" : "Cube.005",
            "translation" : [
                5,
                1,
                -4.11862850189209
            ]
        },
        {
            "mesh" : 3,
            "name" : "Cube.006",
            "translation" : [
                -4,
                1,
                8.88137149810791
            ]
        },
        {
            "mesh" : 4,
            "name" : "target",
            "rotation" : [
                0,
                0,
                -0.7071068286895752,
                0.7071068286895752
            ],
            "scale" : [
                0.6859787106513977,
                0.6859787106513977,
                0.6859787106513977
            ],
            "translation" : [
                -3,
                1,
                6.88137149810791
            ]
        },
        {
            "mesh" : 5,
            "name" : "Plane",
            "scale" : [
                10.436158180236816,
                10.436158180236816,
                10.436158180236816
            ],
            "translation" : [
                0,
                0,
                1
            ]
        }
    ],
    "cameras" : [
        {
            "name" : "Camera",
            "orthographic" : {
                "xmag" : 37.914283752441406,
                "ymag" : 37.914283752441406,
                "zfar" : 100,
                "znear" : 0.10000000149011612
            },
            "type" : "orthographic"
        }
    ],
    "materials" : [
        {
            "doubleSided" : true,
            "name" : "Material",
            "pbrMetallicRoughness" : {
                "baseColorTexture" : {
                    "index" : 0
                },
                "metallicFactor" : 0,
                "roughnessFactor" : 0.4000000059604645
            }
        }
    ],
    "meshes" : [
        {
            "name" : "Cube",
            "primitives" : [
                {
                    "attributes" : {
                        "POSITION" : 0,
                        "NORMAL" : 1,
                        "TEXCOORD_0" : 2
                    },
                    "indices" : 3,
                    "material" : 0
                }
            ]
        },
        {
            "name" : "Icosphere.001",
            "primitives" : [
                {
                    "attributes" : {
                        "POSITION" : 4,
                        "NORMAL" : 5,
                        "TEXCOORD_0" : 6
                    },
                    "indices" : 7,
                    "material" : 0
                }
            ]
        },
        {
            "name" : "Cone",
            "primitives" : [
                {
                    "attributes" : {
                        "POSITION" : 8,
                        "NORMAL" : 9,
                        "TEXCOORD_0" : 10
                    },
                    "indices" : 11,
                    "material" : 0
                }
            ]
        },
        {
            "name" : "Cube.001",
            "primitives" : [
                {
                    "attributes" : {
                        "POSITION" : 12,
                        "NORMAL" : 13,
                        "TEXCOORD_0" : 14
                    },
                    "indices" : 15,
                    "material" : 0
                }
            ]
        },
        {
            "name" : "Torus",
            "primitives" : [
                {
                    "attributes" : {
                        "POSITION" : 16,
                        "NORMAL" : 17,
                        "TEXCOORD_0" : 18
                    },
                    "indices" : 19,
                    "material" : 0
                }
            ]
        },
        {
            "name" : "Plane",
            "primitives" : [
                {
                    "attributes" : {
                        "POSITION" : 20,
                        "NORMAL" : 21,
                        "TEXCOORD_0" : 22
                    },
                    "indices" : 23,
                    "material" : 0
                }
            ]
        }
    ],
    "textures" : [
        {
            "sampler" : 0,
            "source" : 0
        }
    ],
    "images" : [
        {
            "bufferView" : 4,
            "mimeType" : "image/png",
            "name" : "sweet24-1x"
        }
    ],
    "accessors" : [
        {
            "bufferView" : 0,
            "componentType" : 5126,
            "count" : 402,
            "max" : [
                1.584708333015442,
                5.170367240905762,
                1
            ],
            "min" : [
                -1,
                -3,
                -1
            ],
            "type" : "VEC3"
        },
        {
            "bufferView" : 1,
            "componentType" : 5126,
            "count" : 402,
            "type" : "VEC3"
        },
        {
            "bufferView" : 2,
            "componentType" : 5126,
            "count" : 402,
            "type" : "VEC2"
        },
        {
            "bufferView" : 3,
            "componentType" : 5123,
            "count" : 606,
            "type" : "SCALAR"
        },
        {
            "bufferView" : 5,
            "componentType" : 5126,
            "count" : 60,
            "max" : [
                0.8944249749183655,
                1,
                0.8506399989128113
            ],
            "min" : [
                -0.8944249749183655,
                -1,
                -0.8506399989128113
            ],
            "type" : "VEC3"
        },
        {
            "bufferView" : 6,
            "componentType" : 5126,
            "count" : 60,
            "type" : "VEC3"
        },
        {
            "bufferView" : 7,
            "componentType" : 5126,
            "count" : 60,
            "type" : "VEC2"
        },
        {
            "bufferView" : 8,
            "componentType" : 5123,
            "count" : 60,
            "type" : "SCALAR"
        },
        {
            "bufferView" : 9,
            "componentType" : 5126,
            "count" : 24,
            "max" : [
                0.32486802339553833,
                -1.3981704711914062,
                0.3751251697540283
            ],
            "min" : [
                -0.324867844581604,
                -2.148420810699463,
                -0.3751251697540283
            ],
            "type" : "VEC3"
        },
        {
            "bufferView" : 10,
            "componentType" : 5126,
            "count" : 24,
            "type" : "VEC3"
        },
        {
            "bufferView" : 11,
            "componentType" : 5126,
            "count" : 24,
            "type" : "VEC2"
        },
        {
            "bufferView" : 12,
            "componentType" : 5123,
            "count" : 30,
            "type" : "SCALAR"
        },
        {
            "bufferView" : 13,
            "componentType" : 5126,
            "count" : 24,
            "max" : [
                1,
                0,
                1
            ],
            "min" : [
                -1,
                -1,
                -1
            ],
            "type" : "VEC3"
        },
        {
            "bufferView" : 14,
            "componentType" : 5126,
            "count" : 24,
            "type" : "VEC3"
        },
        {
            "bufferView" : 15,
            "componentType" : 5126,
            "count" : 24,
            "type" : "VEC2"
        },
        {
            "bufferView" : 16,
            "componentType" : 5123,
            "count" : 36,
            "type" : "SCALAR"
        },
        {
            "bufferView" : 17,
            "componentType" : 5126,
            "count" : 384,
            "max" : [
                1.25,
                0.25,
                1.25
            ],
            "min" : [
                -1.25,
                -0.25,
                -1.25
            ],
            "type" : "VEC3"
        },
        {
            "bufferView" : 18,
            "componentType" : 5126,
            "count" : 384,
            "type" : "VEC3"
        },
        {
            "bufferView" : 19,
            "componentType" : 5126,
            "count" : 384,
            "type" : "VEC2"
        },
        {
            "bufferView" : 20,
            "componentType" : 5123,
            "count" : 576,
            "type" : "SCALAR"
        },
        {
            "bufferView" : 21,
            "componentType" : 5126,
            "count" : 4,
            "max" : [
                1,
                0,
                1
            ],
            "min" : [
                -1,
                0,
                -1
            ],
            "type" : "VEC3"
        },
        {
            "bufferView" : 22,
            "componentType" : 5126,
            "count" : 4,
            "type" : "VEC3"
        },
        {
            "bufferView" : 23,
            "componentType" : 5126,
            "count" : 4,
            "type" : "VEC2"
        },
        {
            "bufferView" : 24,
            "componentType" : 5123,
            "count" : 6,
            "type" : "SCALAR"
        }
    ],
    "bufferViews" : [
        {
            "buffer" : 0,
            "byteLength" : 4824,
            "byteOffset" : 0
        },
        {
            "buffer" : 0,
            "byteLength" : 4824,
            "byteOffset" : 4824
        },
        {
            "buffer" : 0,
            "byteLength" : 3216,
            "byteOffset" : 9648
        },
        {
            "buffer" : 0,
            "byteLength" : 1212,
            "byteOffset" : 12864
        },
        {
            "buffer" : 0,
            "byteLength" : 195,
            "byteOffset" : 14076
        },
        {
            "buffer" : 0,
            "byteLength" : 720,
            "byteOffset" : 14272
        },
        {
            "buffer" : 0,
            "byteLength" : 720,
            "byteOffset" : 14992
        },
        {
            "buffer" : 0,
            "byteLength" : 480,
            "byteOffset" : 15712
        },
        {
            "buffer" : 0,
            "byteLength" : 120,
            "byteOffset" : 16192
        },
        {
            "buffer" : 0,
            "byteLength" : 288,
            "byteOffset" : 16312
        },
        {
            "buffer" : 0,
            "byteLength" : 288,
            "byteOffset" : 16600
        },
        {
            "buffer" : 0,
            "byteLength" : 192,
            "byteOffset" : 16888
        },
        {
            "buffer" : 0,
            "byteLength" : 60,
            "byteOffset" : 17080
        },
        {
            "buffer" : 0,
            "byteLength" : 288,
            "byteOffset" : 17140
        },
        {
            "buffer" : 0,
            "byteLength" : 288,
            "byteOffset" : 17428
        },
        {
            "buffer" : 0,
            "byteLength" : 192,
            "byteOffset" : 17716
        },
        {
            "buffer" : 0,
            "byteLength" : 72,
            "byteOffset" : 17908
        },
        {
            "buffer" : 0,
            "byteLength" : 4608,
            "byteOffset" : 17980
        },
        {
            "buffer" : 0,
            "byteLength" : 4608,
            "byteOffset" : 22588
        },
        {
            "buffer" : 0,
            "byteLength" : 3072,
            "byteOffset" : 27196
        },
        {
            "buffer" : 0,
            "byteLength" : 1152,
            "byteOffset" : 30268
        },
        {
            "buffer" : 0,
            "byteLength" : 48,
            "byteOffset" : 31420
        },
        {
            "buffer" : 0,
            "byteLength" : 48,
            "byteOffset" : 31468
        },
        {
            "buffer" : 0,
            "byteLength" : 32,
            "byteOffset" : 31516
        },
        {
            "buffer" : 0,
            "byteLength" : 12,
            "byteOffset" : 31548
        }
    ],
    "samplers" : [
        {
            "magFilter" : 9728,
            "minFilter" : 9984
        }
    ],
    "buffers" : [
        {
            "byteLength" : 31560,
            "uri" : "data:application/octet-stream;base64,"
        }
    ]
}
